<svg height="1098" viewBox="0 0 4095 2341" width="1920" xmlns="http://www.w3.org/2000/svg" xmlns:xlink="http://www.w3.org/1999/xlink"><linearGradient id="a" gradientUnits="userSpaceOnUse" x1="0" x2="4095" y1="163" y2="1764"><stop offset="0" stop-color="#003ed8"/><stop offset="1" stop-color="#0045dc"/></linearGradient><linearGradient id="b" gradientUnits="userSpaceOnUse" x1="-17.8" x2="2184.2" y1="1180" y2="1661"><stop offset="0" stop-color="#0b6fed"/><stop offset="1" stop-color="#0737de"/></linearGradient><linearGradient id="c" gradientUnits="userSpaceOnUse" x1="-.8" x2="2558.2" y1="1854.5" y2="2471"><stop offset="0" stop-color="#0f7df5"/><stop offset="1" stop-color="#0e2fe2"/></linearGradient><linearGradient id="d" gradientUnits="userSpaceOnUse" x1="2196.7" x2="4095.2" y1="0" y2="1177.5"><stop offset="0" stop-color="#0263e5"/><stop offset="1" stop-color="#014de1"/></linearGradient><linearGradient id="e" gradientUnits="userSpaceOnUse" x1="2337.9" x2="4244.1" y1="234.1" y2="947.3"><stop offset="0" stop-color="#0579ec"/><stop offset="1" stop-color="#0353e5"/></linearGradient><linearGradient id="f" gradientUnits="userSpaceOnUse" x1="2839.4" x2="4296.5" y1="88.9" y2="634.1"><stop offset="0" stop-color="#0d6eef"/><stop offset="1" stop-color="#0bb4fa"/></linearGradient><clipPath id="g"><path d="m0 0h4095v2341h-4095z"/></clipPath><g clip-path="url(#g)"><path d="m0 0h4095v2341h-4095z" fill="url(#a)"/><path d="m988 1012c-612-110-1006 109-1006 109v1220h4113v-488s-453 193-836 159c-447-39-649-159-1088-438-402-256-571-453-1183-562z" fill="url(#b)" opacity=".9"/><path d="m-1 1612v724s3128 438 2468 0-1147-800-1692-809c-545-10-776 85-776 85z" fill="url(#c)" opacity=".9"/><path d="m4095 0h-2567s397 733 1109 1201 1458 423 1458 423z" fill="url(#d)" opacity=".9"/><path d="m4244 0h-2065s319 590 892 966 1173 340 1173 340z" fill="url(#e)" opacity=".9"/><path d="m4296-90h-1578s244 451 682 738 896 260 896 260z" fill="url(#f)" opacity=".9"/></g></svg>