<svg fill="none" height="80" viewBox="0 0 80 80" width="80" xmlns="http://www.w3.org/2000/svg"><path clip-rule="evenodd" d="m45.3465.471309c16.0323.599301 29.3545 12.085391 33.7099 27.498691 3.8836 13.7436-4.7671 26.4278-15.958 35.323-13.565 10.7823-30.5039 22.5207-45.1439 13.2446-16.70072-10.5817-21.79182-32.8345-15.10049-51.4161 6.12671-17.01353 24.39329-25.32675 42.49249-24.650191z" fill="#e6f4ff" fill-rule="evenodd"/><path d="m37.5 41.9331h3v-13h-3zm6-3h3v-8h-3zm-12-1h3v-7h-3zm-3.5 19.5v-8.0615c-1.9-1.7333-3.375-3.7198-4.425-5.9595-1.05-2.24-1.575-4.571-1.575-6.993 0-4.7183 1.6528-8.7288 4.9585-12.0315 3.3053-3.303 7.3192-4.9545 12.0415-4.9545 3.8847 0 7.3583 1.161 10.421 3.483 3.063 2.3217 5.0522 5.3338 5.9675 9.0365l2.3365 9.229c.15.5703.0442 1.0882-.3175 1.5535-.3613.4653-.8433.698-1.446.698h-3.9615v6.3845c0 .9943-.354 1.8455-1.062 2.5535s-1.5592 1.062-2.5535 1.062h-4.3845v4h-3v-7h7.3845c.1797 0 .3272-.0577.4425-.173s.173-.2628.173-.4425v-9.3845h5.4l-1.9-7.75c-.7667-3.046-2.4063-5.5158-4.919-7.4095-2.513-1.8937-5.3733-2.8405-8.581-2.8405-3.8667 0-7.1667 1.3518-9.9 4.0555s-4.1 5.9915-4.1 9.8635c0 1.997.4083 3.894 1.225 5.691s1.975 3.3943 3.475 4.792l1.3 1.198v9.4z" fill="#076dbe"/></svg>