<svg fill="none" height="80" viewBox="0 0 81 80" width="81" xmlns="http://www.w3.org/2000/svg"><path clip-rule="evenodd" d="m45.6795.0382031c16.0323.5992979 29.3545 12.0853969 33.71 27.4986969 3.8835 13.7436-4.7672 26.4278-15.9581 35.323-13.565 10.7823-30.5038 22.5207-45.1439 13.2446-16.70071-10.5817-21.79181-32.8345-15.10048-51.4161 6.12671-17.01354 24.39328-25.326755 42.49248-24.6501969z" fill="#e6f4ff" fill-rule="evenodd"/><path d="m26.8326 48v-15h3v15zm11 0v-15h3v15zm-16.9615 7v-3h36.923v3zm27.9615-7v-15h3v15zm-27.9615-19v-2.846l18.4615-9.0385 18.4615 9.0385v2.846zm7.092-3h22.739l-11.3695-5.5z" fill="#076dbe"/></svg>