<svg fill="none" height="49" viewBox="0 0 48 49" width="48" xmlns="http://www.w3.org/2000/svg"><path d="m20.7 33.7406 10.6075-10.6075-2.169-2.169-8.4695 8.469-4.238-4.2385-2.1385 2.1385zm-7.7 5.6925c-2.764 0-5.12167-.9603-7.073-2.881-1.95133-1.9203-2.927-4.2625-2.927-7.0265 0-2.4463.78333-4.622 2.35-6.527 1.56667-1.9053 3.56533-3.0323 5.996-3.381.641-2.9897 2.1443-5.4345 4.51-7.3345 2.3653-1.9 5.08-2.84999 8.144-2.84999 3.618 0 6.6892 1.26219 9.2135 3.78649s3.7865 5.5955 3.7865 9.2135v1h.6155c2.1077.164 3.8653 1.0115 5.273 2.5425 1.4077 1.5307 2.1115 3.3498 2.1115 5.4575 0 2.2307-.7757 4.1217-2.327 5.673s-3.4423 2.327-5.673 2.327zm0-3h24c1.4 0 2.5833-.4833 3.55-1.45s1.45-2.15 1.45-3.55-.4833-2.5833-1.45-3.55-2.15-1.45-3.55-1.45h-3v-4c0-2.7667-.975-5.125-2.925-7.075s-4.3083-2.925-7.075-2.925-5.125.975-7.075 2.925-2.925 4.3083-2.925 7.075h-1c-1.9333 0-3.58333.6833-4.95 2.05s-2.05 3.0167-2.05 4.95.68333 3.5833 2.05 4.95 3.0167 2.05 4.95 2.05z" fill="#076dbe"/></svg>