<svg fill="none" height="80" viewBox="0 0 80 80" width="80" xmlns="http://www.w3.org/2000/svg"><path clip-rule="evenodd" d="m45.3465.0382031c16.0323.5992979 29.3545 12.0853969 33.7099 27.4986969 3.8836 13.7436-4.7671 26.4278-15.958 35.323-13.565 10.7823-30.5039 22.5207-45.1439 13.2446-16.70072-10.5817-21.79182-32.8345-15.10049-51.4161 6.12671-17.01354 24.39329-25.326755 42.49249-24.6501969z" fill="#e6f4ff" fill-rule="evenodd"/><path d="m37.5 55.5v-11h3v4h16v3h-16v4zm-16-4v-3h11v3zm8-8v-4h-8v-3h8v-4h3v11zm8-4v-3h19v3zm8-8v-11h3v4h8v3h-8v4zm-24-4v-3h19v3z" fill="#076dbe"/></svg>