<svg fill="none" height="80" viewBox="0 0 80 80" width="80" xmlns="http://www.w3.org/2000/svg"><path clip-rule="evenodd" d="m45.3465.485957c16.0323.599293 29.3545 12.085343 33.7099 27.498743 3.8836 13.7435-4.7671 26.4277-15.958 35.323-13.565 10.7823-30.5039 22.5207-45.1439 13.2446-16.70072-10.5817-21.79182-32.8346-15.10049-51.4161 6.12671-17.01359 24.39329-25.326801 42.49249-24.650243z" fill="#e6f4ff" fill-rule="evenodd"/><path d="m37.5111 55.9478v-4.1845c-1.741-.3104-3.2404-.9905-4.498-2.0405-1.2577-1.05-2.1865-2.5185-2.7865-4.4055l2.777-1.154c.5383 1.5486 1.3055 2.7333 2.3015 3.554.9963.8203 2.3265 1.2305 3.9905 1.2305 1.4436 0 2.7175-.3435 3.8215-1.0305 1.1036-.6874 1.6555-1.7772 1.6555-3.2695 0-1.295-.4147-2.329-1.244-3.102-.8297-.773-2.5457-1.58-5.148-2.421-2.7257-.8617-4.6187-1.8694-5.679-3.023-1.0604-1.154-1.5905-2.6054-1.5905-4.354 0-2.0127.7065-3.5967 2.1195-4.752 1.4126-1.155 2.8395-1.7967 4.2805-1.925v-4.123h3v4.123c1.5256.2026 2.8076.6988 3.846 1.4885 1.0386.7896 1.8463 1.8166 2.423 3.081l-2.738 1.2535c-.4387-.964-1.0504-1.7127-1.835-2.246-.7844-.5334-1.8164-.8-3.096-.8-1.505 0-2.7147.3666-3.629 1.1-.914.7333-1.371 1.6666-1.371 2.8 0 1.164.468 2.0948 1.404 2.7925.9356.6973 2.6753 1.428 5.219 2.192 2.364.718 4.1281 1.7411 5.2925 3.0695 1.164 1.328 1.746 2.9228 1.746 4.7845 0 2.187-.7032 3.8843-2.1095 5.092-1.4064 1.208-3.1237 1.9235-5.152 2.1465v4.123z" fill="#076dbe"/></svg>