<svg fill="none" height="80" viewBox="0 0 80 80" width="80" xmlns="http://www.w3.org/2000/svg"><path clip-rule="evenodd" d="m45.3465.0382031c16.0323.5992979 29.3545 12.0853969 33.7099 27.4986969 3.8836 13.7436-4.7671 26.4278-15.958 35.323-13.565 10.7823-30.5039 22.5207-45.1439 13.2446-16.70072-10.5817-21.79182-32.8345-15.10049-51.4161 6.12671-17.01354 24.39329-25.326755 42.49249-24.6501969z" fill="#e6f4ff" fill-rule="evenodd"/><path d="m34.0004 42.9999v-10h10v10zm3-3h4v-4h-4zm-3.5 14.5385v-3.5385h-3.8845c-1.0103 0-1.8655-.35-2.5655-1.05s-1.05-1.5551-1.05-2.5655v-3.8845h-3.5385v-3h3.5385v-5h-3.5385v-3h3.5385v-3.8845c0-1.0103.35-1.8655 1.05-2.5655s1.5552-1.05 2.5655-1.05h3.8845v-3.5385h3v3.5385h5v-3.5385h3v3.5385h3.8845c1.0104 0 1.8655.35 2.5655 1.05s1.05 1.5552 1.05 2.5655v3.8845h3.5385v3h-3.5385v5h3.5385v3h-3.5385v3.8845c0 1.0104-.35 1.8655-1.05 2.5655s-1.5551 1.05-2.5655 1.05h-3.8845v3.5385h-3v-3.5385h-5v3.5385zm14.8845-6.5385c.154 0 .295-.0641.423-.1925.1284-.128.1925-.269.1925-.423v-18.769c0-.154-.0641-.295-.1925-.423-.128-.1283-.269-.1925-.423-.1925h-18.769c-.154 0-.295.0642-.423.1925-.1283.128-.1925.269-.1925.423v18.769c0 .154.0642.295.1925.423.128.1284.269.1925.423.1925z" fill="#076dbe"/></svg>