<svg fill="none" height="80" viewBox="0 0 81 80" width="81" xmlns="http://www.w3.org/2000/svg"><path clip-rule="evenodd" d="m46.0135.0382031c16.0323.5992979 29.3545 12.0853969 33.7099 27.4986969 3.8836 13.7436-4.7671 26.4278-15.958 35.323-13.565 10.7823-30.5039 22.5207-45.1439 13.2446-16.70072-10.5817-21.79183-32.8345-15.10049-51.4161 6.1267-17.01354 24.39329-25.326755 42.49249-24.6501969z" fill="#e6f4ff" fill-rule="evenodd"/><path d="m30.398 47.5h2.9995v-9.5h-2.9995zm15.5385 0h2.9995v-19.5h-2.9995zm-7.7695 0h3v-5.5h-3zm0-9.5h3v-4h-3zm-11.8845 17c-1.0103 0-1.8655-.35-2.5655-1.05s-1.05-1.5552-1.05-2.5655v-26.769c0-1.0103.35-1.8655 1.05-2.5655s1.5552-1.05 2.5655-1.05h26.769c1.0103 0 1.8655.35 2.5655 1.05s1.05 1.5552 1.05 2.5655v26.769c0 1.0103-.35 1.8655-1.05 2.5655s-1.5552 1.05-2.5655 1.05zm0-3h26.769c.154 0 .295-.0642.423-.1925.1283-.128.1925-.269.1925-.423v-26.769c0-.154-.0642-.295-.1925-.423-.128-.1283-.269-.1925-.423-.1925h-26.769c-.154 0-.295.0642-.423.1925-.1283.128-.1925.269-.1925.423v26.769c0 .154.0642.295.1925.423.128.1283.269.1925.423.1925z" fill="#076dbe"/></svg>