<svg fill="none" height="81" viewBox="0 0 80 81" width="80" xmlns="http://www.w3.org/2000/svg"><path clip-rule="evenodd" d="m45.3465.904536c16.0323.599294 29.3545 12.085364 33.7099 27.498764 3.8836 13.7435-4.7671 26.4277-15.958 35.3229-13.565 10.7824-30.5039 22.5208-45.1439 13.2447-16.70072-10.5818-21.79182-32.8346-15.10049-51.4161 6.12671-17.01361 24.39329-25.326822 42.49249-24.650264z" fill="#e6f4ff" fill-rule="evenodd"/><path d="m21.5 56.3664v-3.2885l3-3v6.2885zm8 0v-11.2885l3-3v14.2885zm8 0v-14.2885l3 3.05v11.2385zm8 0v-11.2385l3-3v14.2385zm8 0v-19.2885l3-3v22.2885zm-32-11.0615v-4.227l13.5-13.5 8 8 13.5-13.5v4.227l-13.5 13.5-8-8z" fill="#076dbe"/></svg>