<svg fill="none" height="80" viewBox="0 0 80 80" width="80" xmlns="http://www.w3.org/2000/svg"><path clip-rule="evenodd" d="m45.3465.0382031c16.0323.5992979 29.3545 12.0853969 33.7099 27.4986969 3.8836 13.7436-4.7671 26.4278-15.958 35.323-13.565 10.7823-30.5039 22.5207-45.1439 13.2446-16.70072-10.5817-21.79182-32.8345-15.10049-51.4161 6.12671-17.01354 24.39329-25.326755 42.49249-24.6501969z" fill="#e6f4ff" fill-rule="evenodd"/><path d="m34.6 40.977 1.654-5.431-4.35-3.3535h5.4115l1.6845-5.408 1.6845 5.408h5.4115l-4.3805 3.3535 1.6535 5.431-4.369-3.377zm-6.6 17.4845v-14.3155c-1.2667-1.323-2.25-2.8525-2.95-4.5885-.7-1.7357-1.05-3.5882-1.05-5.5575 0-4.1847 1.4538-7.7308 4.3615-10.6385s6.4538-4.3615 10.6385-4.3615 7.7308 1.4538 10.6385 4.3615 4.3615 6.4538 4.3615 10.6385c0 1.9693-.35 3.8218-1.05 5.5575-.7 1.736-1.6833 3.2655-2.95 4.5885v14.3155l-11-3.5zm11-12.4615c3.3333 0 6.1667-1.1667 8.5-3.5s3.5-5.1667 3.5-8.5-1.1667-6.1667-3.5-8.5-5.1667-3.5-8.5-3.5-6.1667 1.1667-8.5 3.5-3.5 5.1667-3.5 8.5 1.1667 6.1667 3.5 8.5 5.1667 3.5 8.5 3.5zm-8 8.069 8-2.146 8 2.146v-7.4305c-1.141.7437-2.3897 1.3232-3.746 1.7385-1.3567.4153-2.7747.623-4.254.623s-2.8973-.2077-4.254-.623c-1.3563-.4153-2.605-.9948-3.746-1.7385z" fill="#076dbe"/></svg>