<svg fill="none" height="49" viewBox="0 0 48 49" width="48" xmlns="http://www.w3.org/2000/svg"><path d="m12.5 27.9331h15v-3h-15zm0-6h23v-3h-23zm0-6h23v-3h-23zm-7.5 26.577v-33.46149c0-1.01034.35-1.8655 1.05-2.5655s1.55517-1.05 2.5655-1.05h30.769c1.0103 0 1.8655.35 2.5655 1.05s1.05 1.55516 1.05 2.5655v22.76899c0 1.0103-.35 1.8655-1.05 2.5655s-1.5552 1.05-2.5655 1.05h-27.3075zm5.8-10.077h28.5845c.154 0 .295-.0642.423-.1925.1283-.128.1925-.269.1925-.423v-22.76899c0-.154-.0642-.295-.1925-.423-.128-.12834-.269-.1925-.423-.1925h-30.769c-.154 0-.295.06416-.423.1925-.12833.128-.1925.269-.1925.423v26.15399z" fill="#076dbe"/></svg>