<svg fill="none" height="80" viewBox="0 0 81 80" width="81" xmlns="http://www.w3.org/2000/svg" xmlns:xlink="http://www.w3.org/1999/xlink"><clipPath id="a"><path d="m15.666 14h48v48h-48z"/></clipPath><path clip-rule="evenodd" d="m46.0125.0382031c16.0323.5992979 29.3545 12.0853969 33.71 27.4986969 3.8836 13.7436-4.7672 26.4278-15.9581 35.323-13.565 10.7823-30.5038 22.5207-45.1439 13.2446-16.7007-10.5817-21.7918-32.8345-15.10047-51.4161 6.12671-17.01354 24.39327-25.326755 42.49247-24.6501969z" fill="#e6f4ff" fill-rule="evenodd"/><g clip-path="url(#a)"><path d="m27.6685 59.5c-1.5273 0-2.8261-.5345-3.8965-1.6035-1.0707-1.069-1.606-2.367-1.606-3.894 0-1.5273.5349-2.8262 1.6045-3.8965 1.0694-1.0707 2.368-1.606 3.896-1.606.428 0 .8484.0532 1.261.1595.413.1067.8029.2497 1.1695.429l3.965-4.9345c-.8306-.9053-1.4036-1.9182-1.719-3.0385-.3153-1.1207-.3795-2.2477-.1925-3.381l-5.7615-1.9075c-.5026.8077-1.1635 1.455-1.9825 1.942-.819.4873-1.7325.731-2.7405.731-1.5277 0-2.8263-.5345-3.896-1.6035-1.0693-1.069-1.604-2.367-1.604-3.894 0-1.5273.5345-2.8262 1.6035-3.8965 1.069-1.0707 2.367-1.606 3.894-1.606 1.5273 0 2.8262.5347 3.8965 1.604 1.0707 1.0697 1.606 2.3683 1.606 3.896 0 .118-.0031.2167-.0095.296-.0066.0797-.01.1592-.01.2385l5.7425 1.9965c.5514-1.0207 1.3085-1.8963 2.2715-2.627.9627-.7307 2.067-1.1998 3.313-1.4075v-6.139c-1.287-.3023-2.3266-.953-3.119-1.952-.7923-.9987-1.1885-2.1365-1.1885-3.4135 0-1.5203.5345-2.8157 1.6035-3.886 1.069-1.0707 2.367-1.606 3.894-1.606 1.5274 0 2.8262.5347 3.8965 1.604 1.0707 1.0697 1.606 2.3683 1.606 3.896 0 1.2717-.4013 2.4068-1.204 3.4055-.8023.999-1.8368 1.6497-3.1035 1.952v6.139c1.246.2077 2.3472.6768 3.3035 1.4075.9564.7307 1.7167 1.6063 2.281 2.627l5.7425-1.9965c-.013-.0923-.0195-.175-.0195-.248v-.2865c0-1.5277.5345-2.8263 1.6035-3.896 1.069-1.0693 2.367-1.604 3.894-1.604 1.5274 0 2.8262.5345 3.8965 1.6035 1.0707 1.069 1.606 2.367 1.606 3.894 0 1.5273-.5346 2.8262-1.604 3.8965-1.0696 1.0707-2.3683 1.606-3.896 1.606-1.004 0-1.9216-.2437-2.753-.731-.8313-.487-1.488-1.1343-1.97-1.942l-5.7615 1.9075c.187 1.1333.1229 2.2552-.1925 3.3655-.3153 1.1103-.8883 2.1218-1.719 3.0345l3.965 4.904c.3667-.1667.7565-.298 1.1695-.394.4127-.0963.833-.1445 1.261-.1445 1.528 0 2.8267.5345 3.896 1.6035 1.0697 1.069 1.6045 2.367 1.6045 3.894 0 1.5273-.5345 2.8262-1.6035 3.8965-1.069 1.0707-2.367 1.606-3.894 1.606-1.5273 0-2.8261-.5347-3.8965-1.604-1.0706-1.0697-1.606-2.3683-1.606-3.896 0-.6307.102-1.2377.306-1.821.2037-.5833.5082-1.1187.9135-1.606l-3.9655-4.973c-1.136.677-2.3893 1.0155-3.76 1.0155-1.3703 0-2.6298-.3385-3.7785-1.0155l-3.935 4.973c.3924.4873.6937 1.0227.904 1.606.2104.5833.3155 1.1903.3155 1.821 0 1.5277-.5345 2.8263-1.6035 3.896-1.069 1.0693-2.367 1.604-3.894 1.604zm-6.0025-24c.695 0 1.2854-.243 1.771-.729.486-.4857.729-1.076.729-1.771s-.243-1.2853-.729-1.771c-.4856-.486-1.076-.729-1.771-.729s-1.2853.243-1.771.729c-.486.4857-.729 1.076-.729 1.771s.243 1.2853.729 1.771c.4857.486 1.076.729 1.771.729zm6 21c.695 0 1.2854-.243 1.771-.729.486-.4857.729-1.076.729-1.771s-.243-1.2853-.729-1.771c-.4856-.486-1.076-.729-1.771-.729s-1.2853.243-1.771.729c-.486.4857-.729 1.076-.729 1.771s.243 1.2853.729 1.771c.4857.486 1.076.729 1.771.729zm12-34c.695 0 1.2854-.243 1.771-.729.486-.4857.729-1.076.729-1.771s-.243-1.2853-.729-1.771c-.4856-.486-1.076-.729-1.771-.729s-1.2853.243-1.771.729c-.486.4857-.729 1.076-.729 1.771s.243 1.2853.729 1.771c.4857.486 1.076.729 1.771.729zm0 21.1155c1.2847 0 2.375-.4482 3.271-1.3445.8964-.896 1.3445-1.9863 1.3445-3.271s-.4481-2.375-1.3445-3.271c-.896-.8963-1.9863-1.3445-3.271-1.3445-1.2846 0-2.375.4482-3.271 1.3445-.8963.896-1.3445 1.9863-1.3445 3.271s.4482 2.375 1.3445 3.271c.896.8963 1.9864 1.3445 3.271 1.3445zm12 12.8845c.695 0 1.2854-.243 1.771-.729.486-.4857.729-1.076.729-1.771s-.243-1.2853-.729-1.771c-.4856-.486-1.076-.729-1.771-.729s-1.2853.243-1.771.729c-.486.4857-.729 1.076-.729 1.771s.243 1.2853.729 1.771c.4857.486 1.076.729 1.771.729zm6-21c.695 0 1.2854-.243 1.771-.729.486-.4857.729-1.076.729-1.771s-.243-1.2853-.729-1.771c-.4856-.486-1.076-.729-1.771-.729s-1.2853.243-1.771.729c-.486.4857-.729 1.076-.729 1.771s.243 1.2853.729 1.771c.4857.486 1.076.729 1.771.729z" fill="#076dbe"/></g></svg>