<svg width="48" height="49" viewBox="0 0 48 49" fill="none" xmlns="http://www.w3.org/2000/svg">
<path d="M12.6155 43.2996C11.6182 43.2996 10.7662 42.9464 10.0595 42.2401C9.35317 41.5334 9 40.6814 9 39.6841V20.9151C9 19.9177 9.35317 19.0657 10.0595 18.3591C10.7662 17.6527 11.6182 17.2996 12.6155 17.2996H15V13.2996C15 10.8022 15.8757 8.67789 17.627 6.92656C19.3783 5.17523 21.5027 4.29956 24 4.29956C26.4973 4.29956 28.6217 5.17523 30.373 6.92656C32.1243 8.67789 33 10.8022 33 13.2996V17.2996H35.3845C36.3818 17.2996 37.2338 17.6527 37.9405 18.3591C38.6468 19.0657 39 19.9177 39 20.9151V39.6841C39 40.6814 38.6468 41.5334 37.9405 42.2401C37.2338 42.9464 36.3818 43.2996 35.3845 43.2996H12.6155ZM12.6155 40.2996H35.3845C35.5642 40.2996 35.7117 40.2419 35.827 40.1266C35.9423 40.0112 36 39.8637 36 39.6841V20.9151C36 20.7354 35.9423 20.5879 35.827 20.4726C35.7117 20.3572 35.5642 20.2996 35.3845 20.2996H12.6155C12.4358 20.2996 12.2883 20.3572 12.173 20.4726C12.0577 20.5879 12 20.7354 12 20.9151V39.6841C12 39.8637 12.0577 40.0112 12.173 40.1266C12.2883 40.2419 12.4358 40.2996 12.6155 40.2996ZM24 33.7996C24.9717 33.7996 25.798 33.4592 26.479 32.7786C27.1597 32.0976 27.5 31.2712 27.5 30.2996C27.5 29.3279 27.1597 28.5016 26.479 27.8206C25.798 27.1399 24.9717 26.7996 24 26.7996C23.0283 26.7996 22.202 27.1399 21.521 27.8206C20.8403 28.5016 20.5 29.3279 20.5 30.2996C20.5 31.2712 20.8403 32.0976 21.521 32.7786C22.202 33.4592 23.0283 33.7996 24 33.7996ZM18 17.2996H30V13.2996C30 11.6329 29.4167 10.2162 28.25 9.04956C27.0833 7.88289 25.6667 7.29956 24 7.29956C22.3333 7.29956 20.9167 7.88289 19.75 9.04956C18.5833 10.2162 18 11.6329 18 13.2996V17.2996Z" fill="#076DBE"/>
</svg>
