<svg fill="none" height="80" viewBox="0 0 80 80" width="80" xmlns="http://www.w3.org/2000/svg"><path clip-rule="evenodd" d="m45.3465.0528515c16.0323.5992975 29.3545 12.0853485 33.7099 27.4987485 3.8836 13.7435-4.7671 26.4277-15.958 35.3229-13.565 10.7824-30.5039 22.5208-45.1439 13.2447-16.70072-10.5818-21.79182-32.8346-15.10049-51.4161 6.12671-17.01359 24.39329-25.326807 42.49249-24.6502485z" fill="#e6f4ff" fill-rule="evenodd"/><path d="m47 35.7837c.4897 0 .907-.1724 1.252-.517.3447-.345.517-.7624.517-1.252 0-.4897-.1723-.907-.517-1.252-.345-.3447-.7623-.517-1.252-.517s-.907.1723-1.252.517c-.3447.345-.517.7623-.517 1.252 0 .4896.1723.907.517 1.252.345.3446.7623.517 1.252.517zm-16-4.269h10v-3h-10zm-6.25 23.5c-1.0563-3.6464-2.112-7.2745-3.167-10.8845-1.0553-3.6104-1.583-7.3155-1.583-11.1155 0-2.7847.9705-5.1476 2.9115-7.0886s4.3038-2.9115 7.0885-2.9115h10.5c.9153-1.2026 2.0135-2.1699 3.2945-2.902 1.2807-.732 2.6825-1.098 4.2055-1.098.5513 0 1.0225.1955 1.4135.5865s.5865.8622.5865 1.4135c0 .136-.0187.2719-.056.4076-.037.136-.076.2616-.117.3769-.1847.482-.3418.9757-.4715 1.481-.1293.505-.2402 1.0152-.3325 1.5305l5.204 5.2041h3.773v12.219l-5.458 1.7925-3.292 10.9885h-9.25v-4h-6v4zm2.25-3h4v-4h12v4h4l3.1-10.3 4.9-1.65v-7.05h-2l-7-7c0-.6667.0417-1.3084.125-1.9251.0833-.6166.2212-1.2353.4135-1.856-.9667.2667-1.8103.7316-2.531 1.3946-.7203.6626-1.2728 1.4581-1.6575 2.3865h-12.35c-1.9333 0-3.5833.6833-4.95 2.05-1.3667 1.3666-2.05 3.0166-2.05 4.95 0 3.2666.45 6.4583 1.35 9.575.9 3.1166 1.7833 6.2583 2.65 9.425z" fill="#076dbe"/></svg>