<svg fill="none" height="80" viewBox="0 0 80 80" width="80" xmlns="http://www.w3.org/2000/svg"><path clip-rule="evenodd" d="m45.3465.0528515c16.0323.5992975 29.3545 12.0853485 33.7099 27.4987485 3.8836 13.7435-4.7671 26.4277-15.958 35.3229-13.565 10.7824-30.5039 22.5208-45.1439 13.2447-16.70072-10.5818-21.79182-32.8346-15.10049-51.4161 6.12671-17.01359 24.39329-25.326807 42.49249-24.6502485z" fill="#e6f4ff" fill-rule="evenodd"/><path d="m36.75 47.5147h4.5v-7.25h7.25v-4.5h-7.25v-7.25h-4.5v7.25h-7.25v4.5h7.25zm-11.1345 7.5c-1.0103 0-1.8655-.35-2.5655-1.05s-1.05-1.5552-1.05-2.5655v-26.7691c0-1.0103.35-1.8655 1.05-2.5655s1.5552-1.05 2.5655-1.05h26.769c1.0103 0 1.8655.35 2.5655 1.05s1.05 1.5552 1.05 2.5655v26.7691c0 1.0103-.35 1.8655-1.05 2.5655s-1.5552 1.05-2.5655 1.05zm0-3h26.769c.154 0 .295-.0642.423-.1925.1283-.128.1925-.269.1925-.423v-26.7691c0-.154-.0642-.295-.1925-.423-.128-.1283-.269-.1925-.423-.1925h-26.769c-.154 0-.295.0642-.423.1925-.1283.128-.1925.269-.1925.423v26.7691c0 .154.0642.295.1925.423.128.1283.269.1925.423.1925z" fill="#076dbe"/></svg>