<svg fill="none" height="49" viewBox="0 0 48 49" width="48" xmlns="http://www.w3.org/2000/svg"><path d="m10.3345 31.687c-.605-1.1257-1.062-2.2878-1.371-3.4865-.309-1.199-.4635-2.4215-.4635-3.6675 0-4.3257 1.5052-8.007 4.5155-11.044 3.0103-3.0373 6.6718-4.55601 10.9845-4.55601h1.5615l-3.7-3.7 2.1075-2.1075 7.308 7.30751-7.308 7.3075-2.1075-2.1075 3.7-3.7h-1.5615c-3.4743 0-6.4263 1.223-8.856 3.669-2.4293 2.4463-3.644 5.4233-3.644 8.931 0 .8283.0903 1.6558.271 2.4825.181.827.4522 1.6342.8135 2.4215zm13.6965 14.0535-7.308-7.3075 7.308-7.3075 2.1075 2.1075-3.7 3.7h1.5615c3.4743 0 6.4263-1.223 8.856-3.669 2.4293-2.4463 3.644-5.4233 3.644-8.931 0-.8283-.0903-1.6558-.271-2.4825-.181-.827-.4522-1.6342-.8135-2.4215l2.25-2.25c.605 1.1257 1.062 2.2878 1.371 3.4865.309 1.199.4635 2.4215.4635 3.6675 0 4.3257-1.5052 8.007-4.5155 11.044-3.0103 3.0373-6.6718 4.556-10.9845 4.556h-1.5615l3.7 3.7z" fill="#076dbe"/></svg>