<svg fill="none" height="80" viewBox="0 0 80 80" width="80" xmlns="http://www.w3.org/2000/svg"><path clip-rule="evenodd" d="m45.3465.0382031c16.0323.5992979 29.3545 12.0853969 33.7099 27.4986969 3.8836 13.7436-4.7671 26.4278-15.958 35.323-13.565 10.7823-30.5039 22.5207-45.1439 13.2446-16.70072-10.5817-21.79182-32.8345-15.10049-51.4161 6.12671-17.01354 24.39329-25.326755 42.49249-24.6501969z" fill="#e6f4ff" fill-rule="evenodd"/><path d="m25.8389 35.2424 4.4 1.8615c.5436-1.0873 1.1231-2.138 1.7385-3.152.6153-1.014 1.2935-2.0121 2.0345-2.9945l-2.9345-.569c-.1027-.0256-.202-.0225-.298.0095-.0964.032-.183.0865-.26.1635zm6.792 3.746 5.681 5.65c1.4896-.623 3.0345-1.4845 4.6345-2.5845s3.1193-2.3693 4.558-3.808c2.2433-2.2433 3.9785-4.6875 5.2055-7.3325 1.227-2.6446 1.834-5.3658 1.821-8.1635-2.7974-.0126-5.5204.5944-8.169 1.821-2.6487 1.227-5.0949 2.9624-7.3385 5.206-1.4384 1.4384-2.7075 2.9609-3.8075 4.5675-1.1 1.6064-1.9617 3.1544-2.585 4.644zm9.631-4c-.677-.677-1.0155-1.5-1.0155-2.469 0-.9693.3385-1.7925 1.0155-2.4695s1.5083-1.0155 2.494-1.0155c.986 0 1.8175.3385 2.4945 1.0155s1.0155 1.5002 1.0155 2.4695c0 .969-.3385 1.792-1.0155 2.469s-1.5085 1.0155-2.4945 1.0155c-.9857 0-1.817-.3385-2.494-1.0155zm-.223 16.473 4.6805-4.6805c.077-.077.1315-.1636.1635-.26.032-.096.0353-.1953.01-.298l-.5695-2.9345c-.982.741-1.98 1.414-2.994 2.019-1.0144.6054-2.065 1.1799-3.152 1.7235zm15.227-31.4575c.428 3.8537-.0279 7.5062-1.3675 10.9575-1.3397 3.4514-3.5442 6.7117-6.6135 9.781l-.173.173-.173.173.9035 4.527c.1206.6024.0938 1.1882-.0805 1.7575-.1744.5694-.4757 1.068-.904 1.496l-7.842 7.823-3.758-8.8305-7.838-7.8385-8.831-3.777 7.7925-7.823c.428-.428.9318-.7325 1.5115-.9135.5793-.1806 1.1703-.2106 1.773-.09l4.5655.923c.064-.064.1183-.1216.163-.173.045-.0513.0995-.1091.1635-.1735 3.0693-3.069 6.3245-5.2753 9.7655-6.619 3.441-1.3436 7.0885-1.8013 10.9425-1.373zm-33.223 26.1385c.9743-.9743 2.1621-1.4635 3.5635-1.4675 1.401-.0036 2.5886.4817 3.563 1.456.9743.9744 1.4565 2.162 1.4465 3.563-.0104 1.4014-.5027 2.5892-1.477 3.5635-.7564.7564-1.9974 1.4057-3.723 1.948-1.7257.5424-3.9399.9764-6.6425 1.3021.3256-2.7024.7628-4.9164 1.3115-6.6421.549-1.7256 1.2016-2.9666 1.958-3.723zm2.1385 2.1265c-.359.359-.7052.977-1.0385 1.854-.3334.877-.5604 1.7719-.681 2.6845.913-.1203 1.8078-.3453 2.6845-.675.877-.3293 1.495-.6735 1.854-1.0325.4-.4.6103-.8801.631-1.4405.0203-.5603-.1695-1.0405-.5695-1.4405s-.8802-.5916-1.4405-.575c-.56.0167-1.04.225-1.44.625z" fill="#076dbe"/></svg>