<svg fill="none" height="80" viewBox="0 0 80 80" width="80" xmlns="http://www.w3.org/2000/svg"><path clip-rule="evenodd" d="m45.3465.0382031c16.0323.5992979 29.3545 12.0853969 33.7099 27.4986969 3.8836 13.7436-4.7671 26.4278-15.958 35.323-13.565 10.7823-30.5039 22.5207-45.1439 13.2446-16.70072-10.5817-21.79182-32.8345-15.10049-51.4161 6.12671-17.01354 24.39329-25.326755 42.49249-24.6501969z" fill="#e6f4ff" fill-rule="evenodd"/><path d="m39 60.019c-5.1908-1.37-9.4884-4.3272-12.8928-8.8715-3.4048-4.5443-5.1072-9.6247-5.1072-15.2414v-13.3651l18-6.522 18 6.522v13.3651c0 5.6167-1.7024 10.6971-5.1072 15.2414-3.4044 4.5443-7.702 7.5015-12.8928 8.8715zm0-3.6718c4.16-1.2776 7.6-3.8327 10.32-7.6654s4.08-8.0913 4.08-12.7757v-10.9754l-14.4-5.2044-14.4 5.2044v10.9754c0 4.6844 1.36 8.943 4.08 12.7757s6.16 6.3878 10.32 7.6654zm-4.7538-9.461h9.5076c.6148 0 1.13-.2013 1.5456-.6039.4156-.4022.6234-.9009.6234-1.4959v-6.8791c0-.5947-.2078-1.0933-.6234-1.496-.4156-.4022-.9308-.6033-1.5456-.6033h-.2076v-2.3229c0-1.2179-.4392-2.252-1.3176-3.1021-.8784-.8506-1.947-1.2759-3.2058-1.2759-1.2584 0-2.3268.4253-3.2052 1.2759-.8784.8501-1.3176 1.8842-1.3176 3.1021v2.3229h-.2538c-.6148 0-1.13.2011-1.5456.6033-.4156.4027-.6234.9013-.6234 1.496v6.8791c0 .595.2078 1.0937.6234 1.4959.4156.4026.9308.6039 1.5456.6039zm2.3766-11.0782v-2.3229c0-.6581.23-1.2098.69-1.655s1.03-.6678 1.71-.6678 1.25.2226 1.71.6678.69.9969.69 1.655v2.3229z" fill="#076dbe"/></svg>