<svg fill="none" height="49" viewBox="0 0 48 49" width="48" xmlns="http://www.w3.org/2000/svg"><path d="m21.9 30.7071 10.6075-10.6075-2.1385-2.1385-8.469 8.4695-4.2385-4.2385-2.1385 2.1385zm2.1 12.554c-4.3257-1.1797-7.907-3.7258-10.744-7.6385-2.8373-3.9127-4.256-8.287-4.256-13.123v-11.5075l15-5.61551 15 5.61551v11.5075c0 4.836-1.4187 9.2103-4.256 13.123-2.837 3.9127-6.4183 6.4588-10.744 7.6385zm0-3.1615c3.4667-1.1 6.3333-3.3 8.6-6.6s3.4-6.9667 3.4-11v-9.45l-12-4.48101-12 4.48101v9.45c0 4.0333 1.1333 7.7 3.4 11s5.1333 5.5 8.6 6.6z" fill="#076dbe"/></svg>