<svg fill="none" height="80" viewBox="0 0 80 80" width="80" xmlns="http://www.w3.org/2000/svg"><path clip-rule="evenodd" d="m45.3465.0382031c16.0323.5992979 29.3545 12.0853969 33.7099 27.4986969 3.8836 13.7436-4.7671 26.4278-15.958 35.323-13.565 10.7823-30.5039 22.5207-45.1439 13.2446-16.70072-10.5817-21.79182-32.8345-15.10049-51.4161 6.12671-17.01354 24.39329-25.326755 42.49249-24.6501969z" fill="#e6f4ff" fill-rule="evenodd"/><path d="m32.6232 57.7305-3.569-6.015-6.777-1.485.6615-6.9765-4.592-5.254 4.592-5.254-.6615-6.9765 6.777-1.485 3.569-6.015 6.377 2.7075 6.377-2.7075 3.569 6.015 6.777 1.485-.6615 6.9765 4.592 5.254-4.592 5.254.6615 6.9765-6.777 1.485-3.569 6.015-6.377-2.7075zm1.277-3.8305 5.1-2.1615 5.1615 2.1615 2.8385-4.8 5.5-1.2615-.5-5.6385 3.7-4.2-3.7-4.2615.5-5.6385-5.5-1.2-2.9-4.8-5.1 2.1615-5.1615-2.1615-2.8385 4.8-5.5 1.2.5 5.6385-3.7 4.2615 3.7 4.2-.5 5.7 5.5 1.2zm3-9.4925 10.6075-10.6075-2.1075-2.169-8.5 8.5-4.3-4.2385-2.1075 2.1075z" fill="#076dbe"/></svg>