<svg fill="none" height="80" viewBox="0 0 80 80" width="80" xmlns="http://www.w3.org/2000/svg"><path clip-rule="evenodd" d="m45.3465.485957c16.0323.599293 29.3545 12.085343 33.7099 27.498743 3.8836 13.7435-4.7671 26.4277-15.958 35.323-13.565 10.7823-30.5039 22.5207-45.1439 13.2446-16.70072-10.5817-21.79182-32.8346-15.10049-51.4161 6.12671-17.01359 24.39329-25.326801 42.49249-24.650243z" fill="#e6f4ff" fill-rule="evenodd"/><path d="m53.9504 55.5248-12.3925-12.354 2.108-2.1075 12.392 12.392zm-27.031-1.9385c-1.6793-1.8334-2.9253-3.8655-3.738-6.0965-.813-2.2307-1.2195-4.505-1.2195-6.823 0-2.4844.461-4.899 1.383-7.244.9217-2.345 2.3312-4.4597 4.2285-6.344 1.8977-1.8977 4.024-3.3125 6.379-4.2445s4.762-1.398 7.221-1.398c2.3307 0 4.6032.4115 6.8175 1.2345 2.214.823 4.244 2.0743 6.09 3.754zm.3235-4.6 3.1615-3.1615c-.5333-.7257-1.0513-1.4809-1.554-2.2655-.5027-.7847-.954-1.595-1.354-2.431-.4-.8357-.7338-1.7004-1.0015-2.594-.268-.8937-.4675-1.7995-.5985-2.7175-.7897 2.1976-1.0582 4.4431-.8055 6.7365.2523 2.2936.9697 4.438 2.152 6.433zm5.369-5.269 11.6-11.7005c-1.4333-1.1-2.8847-1.9789-4.354-2.6365-1.469-.6577-2.8528-1.1019-4.1515-1.3325-1.299-.2307-2.4728-.2499-3.5215-.0575-1.0487.1923-1.8627.5781-2.442 1.1575-.5797.6-.9657 1.4243-1.158 2.473-.1923 1.0486-.1763 2.2275.048 3.5365s.6653 2.6961 1.323 4.1615c.658 1.4656 1.5433 2.9318 2.656 4.3985zm13.746-13.808 3.2235-3.1615c-2.049-1.2207-4.2235-1.9527-6.5235-2.196-2.3-.2437-4.5486.0268-6.746.8115.9514.118 1.8738.3173 2.7675.598.8933.2806 1.758.616 2.594 1.006.836.3896 1.6444.8356 2.425 1.338.7807.5026 1.5339 1.0373 2.2595 1.604z" fill="#076dbe"/></svg>