<svg xmlns="http://www.w3.org/2000/svg" width="1920" height="1098" aria-label="Blue layered gradient background" viewBox="0 0 4095 2341"><defs><linearGradient id="b" x1="0" x2="4095" y1="163" y2="1764" gradientUnits="userSpaceOnUse"><stop offset="0" stop-color="#003ed8"/><stop offset="1" stop-color="#0045dc"/></linearGradient><linearGradient id="c" x1="-17.8" x2="2184.2" y1="1180" y2="1661" gradientUnits="userSpaceOnUse"><stop offset="0" stop-color="#0b6fed"/><stop offset="1" stop-color="#0737de"/></linearGradient><linearGradient id="d" x1="-.8" x2="2558.2" y1="1854.5" y2="2471" gradientUnits="userSpaceOnUse"><stop offset="0" stop-color="#0f7df5"/><stop offset="1" stop-color="#0e2fe2"/></linearGradient><linearGradient id="e" x1="2196.7" x2="4095.2" y1="0" y2="1177.5" gradientUnits="userSpaceOnUse"><stop offset="0" stop-color="#0263e5"/><stop offset="1" stop-color="#014de1"/></linearGradient><linearGradient id="f" x1="2337.9" x2="4244.1" y1="234.1" y2="947.3" gradientUnits="userSpaceOnUse"><stop offset="0" stop-color="#0579ec"/><stop offset="1" stop-color="#0353e5"/></linearGradient><linearGradient id="g" x1="2839.4" x2="4296.5" y1="88.9" y2="634.1" gradientUnits="userSpaceOnUse"><stop offset="0" stop-color="#0d6eef"/><stop offset="1" stop-color="#0bb4fa"/></linearGradient><clipPath id="a"><path d="M0 0h4095v2341H0z"/></clipPath></defs><g clip-path="url(#a)"><path fill="url(#b)" d="M0 0h4095v2341H0z"/><path fill="url(#c)" d="M988 1012C376 902-18 1121-18 1121v1220h4113v-488s-453 193-836 159c-447-39-649-159-1088-438-402-256-571-453-1183-562z" opacity=".9"/><path fill="url(#d)" d="M-1 1612v724s3128 438 2468 0-1147-800-1692-809c-545-10-776 85-776 85z" opacity=".9"/><path fill="url(#e)" d="M4095 0H1528s397 733 1109 1201 1458 423 1458 423z" opacity=".9"/><path fill="url(#f)" d="M4244 0H2179s319 590 892 966 1173 340 1173 340z" opacity=".9"/><path fill="url(#g)" d="M4296-90H2718s244 451 682 738 896 260 896 260z" opacity=".9"/></g></svg>