<svg fill="none" height="40" width="150" xmlns="http://www.w3.org/2000/svg"><g fill="#fff"><path d="m145.818 0-4.73 7.35-6.518 10.13-6.518-10.13h-4.009v.575l3.703 5.546 6.702 10.037 10.397-16.158 4.73-7.35z"/><path clip-rule="evenodd" d="m145.153 10.576-3.764 5.85v12.346h3.764zm-21.054.966v17.23h3.702v-11.684zm-23.739 17.23h15.66v-3.288h-11.984v-5.618h10.49v-3.286h-10.49v-5.44h11.835v-3.287h-15.511v20.92zm-23.408-3.347v-14.226h4.124c4.393 0 7.262 3.019 7.262 7.113v.06c0 4.094-2.87 7.053-7.262 7.053zm-3.676 3.347h7.8c6.575 0 11.117-4.573 11.117-10.46v-.06c0-5.887-4.542-10.4-11.117-10.4h-7.8zm-27.324 0h3.616v-14.883l11.535 14.883h3.079v-20.92h-3.617v14.465l-11.207-14.465h-3.406zm-23.738 0h15.66v-3.288h-11.986v-5.618h10.49v-3.286h-10.488v-5.44h11.835v-3.287h-15.51v20.92zm-22.214 0h14.674v-3.347h-10.998v-17.573h-3.676z" fill-rule="evenodd"/><path d="m61.873 36.078v.022c0 2.156 1.679 3.9 4.019 3.9s4.04-1.766 4.04-3.922v-.021c0-2.157-1.678-3.9-4.018-3.9s-4.041 1.765-4.041 3.921zm1.744 0v-.021c0-1.3.932-2.362 2.275-2.362s2.297 1.083 2.297 2.383v.022c0 1.3-.932 2.361-2.275 2.361-1.344 0-2.297-1.083-2.297-2.383zm-53.131 0v.022c0 2.156 1.678 3.9 4.019 3.9 2.34 0 4.04-1.766 4.04-3.922v-.021c0-2.157-1.678-3.9-4.019-3.9-2.34 0-4.04 1.765-4.04 3.921zm1.744 0v-.021c0-1.3.931-2.362 2.275-2.362 1.343 0 2.296 1.083 2.296 2.383v.022c0 1.3-.931 2.361-2.275 2.361-1.343 0-2.296-1.083-2.296-2.383zm74.265-1.614v.022c0 1.506.985 1.928 2.513 2.318 1.267.325 1.527.542 1.527.964v.022c0 .444-.411.715-1.093.715-.867 0-1.583-.358-2.265-.921l-.986 1.181a4.825 4.825 0 0 0 3.218 1.214c1.636 0 2.784-.846 2.784-2.352v-.021c0-1.322-.867-1.875-2.405-2.275-1.31-.336-1.636-.499-1.636-.997v-.022c0-.368.336-.66.975-.66.64 0 1.3.281 1.972.747l.867-1.257c-.77-.618-1.712-.964-2.817-.964-1.55 0-2.654.91-2.654 2.286zm-86.192 0v.022c0 1.506.986 1.928 2.514 2.318 1.267.325 1.527.542 1.527.964v.022c0 .444-.411.715-1.094.715-.866 0-1.582-.358-2.264-.921l-.986 1.181a4.827 4.827 0 0 0 3.218 1.214c1.636 0 2.784-.846 2.784-2.352v-.021c0-1.322-.867-1.875-2.405-2.275-1.311-.336-1.636-.499-1.636-.997v-.022c0-.368.336-.66.975-.66.64 0 1.3.281 1.972.747l.866-1.257c-.769-.618-1.711-.964-2.816-.964-1.55 0-2.655.91-2.655 2.286zm79.574-2.178v4.67l-3.554-4.67h-1.538v7.584h1.647v-4.821l3.672 4.821h1.42v-7.584zm-24.6 7.584h1.668v-7.584h-1.669v7.584zm-11.007-7.584v1.539h2.308v6.045h1.668v-6.045h2.308v-1.539zm-6.195 0v4.344c0 1.203-.618 1.82-1.636 1.82s-1.636-.638-1.636-1.874v-4.29h-1.669v4.334c0 2.232 1.247 3.37 3.283 3.37 2.037 0 3.326-1.127 3.326-3.425v-4.279zm-14.678 0v7.584h5.449v-1.517h-3.781v-6.067z"/><path d="m61.873 36.078v.022c0 2.156 1.679 3.9 4.019 3.9s4.04-1.766 4.04-3.922v-.021c0-2.157-1.678-3.9-4.018-3.9s-4.041 1.765-4.041 3.921zm1.744 0v-.021c0-1.3.932-2.362 2.275-2.362s2.297 1.083 2.297 2.383v.022c0 1.3-.932 2.361-2.275 2.361-1.344 0-2.297-1.083-2.297-2.383zm-53.131 0v.022c0 2.156 1.678 3.9 4.019 3.9 2.34 0 4.04-1.766 4.04-3.922v-.021c0-2.157-1.678-3.9-4.019-3.9-2.34 0-4.04 1.765-4.04 3.921zm1.744 0v-.021c0-1.3.931-2.362 2.275-2.362 1.343 0 2.296 1.083 2.296 2.383v.022c0 1.3-.931 2.361-2.275 2.361-1.343 0-2.296-1.083-2.296-2.383zm74.265-1.614v.022c0 1.506.985 1.928 2.513 2.318 1.267.325 1.527.542 1.527.964v.022c0 .444-.411.715-1.093.715-.867 0-1.583-.358-2.265-.921l-.986 1.181a4.825 4.825 0 0 0 3.218 1.214c1.636 0 2.784-.846 2.784-2.352v-.021c0-1.322-.867-1.875-2.405-2.275-1.31-.336-1.636-.499-1.636-.997v-.022c0-.368.336-.66.975-.66.64 0 1.3.281 1.972.747l.867-1.257c-.77-.618-1.712-.964-2.817-.964-1.55 0-2.654.91-2.654 2.286zm-86.192 0v.022c0 1.506.986 1.928 2.514 2.318 1.267.325 1.527.542 1.527.964v.022c0 .444-.411.715-1.094.715-.866 0-1.582-.358-2.264-.921l-.986 1.181a4.827 4.827 0 0 0 3.218 1.214c1.636 0 2.784-.846 2.784-2.352v-.021c0-1.322-.867-1.875-2.405-2.275-1.311-.336-1.636-.499-1.636-.997v-.022c0-.368.336-.66.975-.66.64 0 1.3.281 1.972.747l.866-1.257c-.769-.618-1.711-.964-2.816-.964-1.55 0-2.655.91-2.655 2.286zm79.574-2.178v4.67l-3.554-4.67h-1.538v7.584h1.647v-4.821l3.672 4.821h1.42v-7.584zm-24.6 7.584h1.668v-7.584h-1.669v7.584zm-11.007-7.584v1.539h2.308v6.045h1.668v-6.045h2.308v-1.539zm-6.195 0v4.344c0 1.203-.618 1.82-1.636 1.82s-1.636-.638-1.636-1.874v-4.29h-1.669v4.334c0 2.232 1.247 3.37 3.283 3.37 2.037 0 3.326-1.127 3.326-3.425v-4.279zm-14.678 0v7.584h5.449v-1.517h-3.781v-6.067z"/><path d="m98.457 35.483v1.187h51.174v-1.186h-51.174z"/></g></svg>