<svg xmlns="http://www.w3.org/2000/svg" width="113" height="113" fill="none"><filter id="d" width="210.2" height="81.2" x="-51.9" y="32.8" color-interpolation-filters="sRGB" filterUnits="userSpaceOnUse"><feFlood flood-opacity="0" result="BackgroundImageFix"/><feColorMatrix in="SourceAlpha" result="hardAlpha" values="0 0 0 0 0 0 0 0 0 0 0 0 0 0 0 0 0 0 127 0"/><feOffset dx="-1.9" dy="-6.5"/><feGaussianBlur stdDeviation="3.9"/><feComposite in2="hardAlpha" operator="out"/><feColorMatrix values="0 0 0 0 0 0 0 0 0 0.25098 0 0 0 0 0.85098 0 0 0 0.7 0"/><feBlend in2="BackgroundImageFix" result="effect1_dropShadow_1371_2809"/><feBlend in="SourceGraphic" in2="effect1_dropShadow_1371_2809" result="shape"/></filter><filter id="f" width="136.8" height="64.1" x="-51.1" y="59" color-interpolation-filters="sRGB" filterUnits="userSpaceOnUse"><feFlood flood-opacity="0" result="BackgroundImageFix"/><feColorMatrix in="SourceAlpha" result="hardAlpha" values="0 0 0 0 0 0 0 0 0 0 0 0 0 0 0 0 0 0 127 0"/><feOffset dx="-1.9" dy="-6.5"/><feGaussianBlur stdDeviation="3.9"/><feComposite in2="hardAlpha" operator="out"/><feColorMatrix values="0 0 0 0 0 0 0 0 0 0.25098 0 0 0 0 0.85098 0 0 0 0.7 0"/><feBlend in2="BackgroundImageFix" result="effect1_dropShadow_1371_2809"/><feBlend in="SourceGraphic" in2="effect1_dropShadow_1371_2809" result="shape"/></filter><filter id="h" width="137.1" height="93.9" x="25" y="-2.9" color-interpolation-filters="sRGB" filterUnits="userSpaceOnUse"><feFlood flood-opacity="0" result="BackgroundImageFix"/><feColorMatrix in="SourceAlpha" result="hardAlpha" values="0 0 0 0 0 0 0 0 0 0 0 0 0 0 0 0 0 0 127 0"/><feOffset dx="1.9" dy="5"/><feGaussianBlur stdDeviation="3.9"/><feComposite in2="hardAlpha" operator="out"/><feColorMatrix values="0 0 0 0 0 0 0 0 0 0.25098 0 0 0 0 0.85098 0 0 0 0.7 0"/><feBlend in2="BackgroundImageFix" result="effect1_dropShadow_1371_2809"/><feBlend in="SourceGraphic" in2="effect1_dropShadow_1371_2809" result="shape"/></filter><filter id="j" width="110.3" height="75.6" x="56.9" y="-2.3" color-interpolation-filters="sRGB" filterUnits="userSpaceOnUse"><feFlood flood-opacity="0" result="BackgroundImageFix"/><feColorMatrix in="SourceAlpha" result="hardAlpha" values="0 0 0 0 0 0 0 0 0 0 0 0 0 0 0 0 0 0 127 0"/><feOffset dx="1.5" dy="4"/><feGaussianBlur stdDeviation="3.2"/><feComposite in2="hardAlpha" operator="out"/><feColorMatrix values="0 0 0 0 0 0 0 0 0 0.25098 0 0 0 0 0.85098 0 0 0 0.7 0"/><feBlend in2="BackgroundImageFix" result="effect1_dropShadow_1371_2809"/><feBlend in="SourceGraphic" in2="effect1_dropShadow_1371_2809" result="shape"/></filter><filter id="l" width="84.3" height="57.8" x="83.5" y="-6.1" color-interpolation-filters="sRGB" filterUnits="userSpaceOnUse"><feFlood flood-opacity="0" result="BackgroundImageFix"/><feColorMatrix in="SourceAlpha" result="hardAlpha" values="0 0 0 0 0 0 0 0 0 0 0 0 0 0 0 0 0 0 127 0"/><feOffset dx="1.2" dy="3.1"/><feGaussianBlur stdDeviation="2.4"/><feComposite in2="hardAlpha" operator="out"/><feColorMatrix values="0 0 0 0 0 0 0 0 0 0.25098 0 0 0 0 0.85098 0 0 0 0.7 0"/><feBlend in2="BackgroundImageFix" result="effect1_dropShadow_1371_2809"/><feBlend in="SourceGraphic" in2="effect1_dropShadow_1371_2809" result="shape"/></filter><linearGradient id="c" x1="-41.3" x2="153.2" y1="7.8" y2="82.5" gradientUnits="userSpaceOnUse"><stop offset="0" stop-color="#003ed8"/><stop offset="1" stop-color="#0045dc"/></linearGradient><linearGradient id="e" x1="-42.1" x2="62.1" y1="56.8" y2="79.1" gradientUnits="userSpaceOnUse"><stop offset="0" stop-color="#0b6fed"/><stop offset="1" stop-color="#0737de"/></linearGradient><linearGradient id="g" x1="-41.3" x2="79.9" y1="89.2" y2="117.9" gradientUnits="userSpaceOnUse"><stop offset="0" stop-color="#0f7df5"/><stop offset="1" stop-color="#0e2fe2"/></linearGradient><linearGradient id="i" x1="62.6" x2="153.2" y1="0" y2="55.2" gradientUnits="userSpaceOnUse"><stop offset="0" stop-color="#0263e5"/><stop offset="1" stop-color="#014de1"/></linearGradient><linearGradient id="k" x1="69.2" x2="159.7" y1="11.3" y2="44.5" gradientUnits="userSpaceOnUse"><stop offset="0" stop-color="#0579ec"/><stop offset="1" stop-color="#0353e5"/></linearGradient><linearGradient id="m" x1="93" x2="162.1" y1="4.3" y2="29.7" gradientUnits="userSpaceOnUse"><stop offset="0" stop-color="#0d6eef"/><stop offset="1" stop-color="#0bb4fa"/></linearGradient><clipPath id="a"><rect width="113" height="113" rx="56.5"/></clipPath><mask id="b" width="195" height="113" x="-42" y="0" maskUnits="userSpaceOnUse"><path fill="#fff" d="M152 0H-41v113h193z"/></mask><g clip-path="url(#a)"><g mask="url(#b)"><path fill="url(#c)" d="M152 0H-41v113h193z"/><g filter="url(#d)"><path fill="url(#e)" d="M5 49c-29-6-47 5-47 5v59h194V89s-21 9-39 8c-21-2-31-8-52-21C42 63 34 54 5 49z"/></g><g filter="url(#f)"><path fill="url(#g)" d="M-41 78v34s148 21 116 0C44 91 21 74-5 73c-25 0-36 5-36 5z"/></g><g filter="url(#h)"><path fill="url(#i)" d="M152 0H31s19 35 52 58c34 22 69 20 69 20z"/></g><g filter="url(#j)"><path fill="url(#k)" d="M159 0H62s15 28 42 46c27 19 55 17 55 17z"/></g><g filter="url(#l)"><path fill="url(#m)" d="M162-4H87s12 21 32 35c21 14 43 13 43 13z"/></g></g><path fill="#fff" d="M92 14 74 43 48 83 23 43H7v2l14 23 27 39 40-64 19-29z"/></g></svg>